<?xml version="1.0" encoding="UTF-8"?>
<svg id="Calque_2" data-name="Calque 2" xmlns="http://www.w3.org/2000/svg" xmlns:xlink="http://www.w3.org/1999/xlink" viewBox="0 0 320 177.3">
  <defs>
    <style>
      .cls-1 {
        fill: url(#Dégradé_sans_nom_7);
      }

      .cls-2 {
        fill: url(#Dégradé_sans_nom_27);
        fill-rule: evenodd;
      }

      .cls-3 {
        fill: url(#Dégradé_sans_nom_3);
      }
    </style>
    <linearGradient id="Dégradé_sans_nom_3" data-name="Dégradé sans nom 3" x1="0" y1="108.26" x2="154.34" y2="108.26" gradientUnits="userSpaceOnUse">
      <stop offset="0" stop-color="#09f"/>
      <stop offset=".4" stop-color="#0070b4"/>
      <stop offset="1" stop-color="#2e3191"/>
    </linearGradient>
    <linearGradient id="Dégradé_sans_nom_7" data-name="Dégradé sans nom 7" x1="242.83" y1="177.3" x2="242.83" y2="39.21" gradientUnits="userSpaceOnUse">
      <stop offset="0" stop-color="#a9cf44"/>
      <stop offset=".4" stop-color="#37b34a"/>
      <stop offset=".57" stop-color="#2a9d41"/>
      <stop offset=".91" stop-color="#09672c"/>
      <stop offset="1" stop-color="#005826"/>
    </linearGradient>
    <linearGradient id="Dégradé_sans_nom_27" data-name="Dégradé sans nom 27" x1="160" y1="58.45" x2="160" y2="0" gradientUnits="userSpaceOnUse">
      <stop offset=".42" stop-color="#ffc50a"/>
      <stop offset="1" stop-color="#f37421"/>
    </linearGradient>
  </defs>
  <g id="Calque_1-2" data-name="Calque 1">
    <g>
      <path class="cls-3" d="m148.61,158.72c-.52-2.65-1.17-5.25-1.91-7.7l-1.06-6.27c-.2-1.25-.59-2.25-.84-2.9-4.32-11.08-14.94-31.62-37.33-44.61-13.24-7.67-28.48-11.6-45.59-11.81-1.87-15.85.5-30.21,2.73-39.23,1.34-5.4,7.21-8.37,12.4-6.33,91.65,36.12,79.9,96.11,72.21,117.5-.16.44-.34.93-.61,1.36ZM34.78,86.3c9.81,0,17.77-7.95,17.77-17.77s-7.95-17.77-17.77-17.77-17.77,7.96-17.77,17.77,7.96,17.77,17.77,17.77ZM1,116.41c11.67,22.69,60.05,94.93,127.9,41.82,4.05-3.17,8.14-7.25,9.38-12.23.12-.49-.27-.99-.44-1.43-8.19-21.2-38.85-74.1-131.66-41.08-5.25,1.88-7.72,7.98-5.19,12.93"/>
      <path class="cls-1" d="m170.78,157.36c-7.68-21.39-19.43-81.38,72.21-117.5,5.2-2.03,11.06.94,12.4,6.33,2.23,9.02,4.59,23.38,2.73,39.23-17.12.21-32.36,4.14-45.59,11.81-22.39,12.98-33.01,33.52-37.33,44.61-.26.65-.64,1.65-.84,2.9l-1.06,6.27c-.74,2.46-1.39,5.05-1.91,7.7-.27-.43-.45-.92-.61-1.36Zm132.2-88.82c0-9.81-7.96-17.77-17.77-17.77s-17.77,7.96-17.77,17.77,7.95,17.77,17.77,17.77,17.77-7.95,17.77-17.77Zm16.01,47.87c2.54-4.95.07-11.04-5.19-12.93-92.81-33.02-123.46,19.89-131.66,41.08-.17.44-.56.93-.44,1.43,1.24,4.99,5.33,9.07,9.38,12.23,67.85,53.12,116.23-19.13,127.9-41.82"/>
      <path class="cls-2" d="m141.63,1.81c4.49-.96,9.11-1.57,13.83-1.81l1.85,35.77.2,3.82c-2.59.13-5.13.47-7.6,1l-.79-3.73-7.48-35.04Zm-5.37,39.6l1.74,3.4c2.26-1.16,4.63-2.14,7.08-2.93l-1.17-3.63-11.05-34.08c-4.46,1.45-8.77,3.23-12.88,5.34l16.29,31.91Zm-11.23,7.73l2.56,2.84c1.9-1.71,3.93-3.27,6.08-4.67l-2.08-3.21-19.48-30.05c-3.91,2.54-7.61,5.39-11.06,8.5l23.98,26.59Zm-.97,6.37l-2.84-2.56-26.59-23.98c-2.74,3.03-5.25,6.27-7.55,9.66,13.33,5.85,24.85,12.46,34.54,19.82.78-1.01,1.59-1.99,2.45-2.94Zm101.32-26.54l-26.59,23.98-2.84,2.56c.85.95,1.67,1.93,2.45,2.94,9.69-7.36,21.21-13.97,34.54-19.82-2.3-3.39-4.81-6.63-7.55-9.66Zm-36.96,15.13l-2.08,3.21c2.15,1.4,4.18,2.96,6.08,4.67l2.56-2.84,23.98-26.59c-3.45-3.11-7.15-5.96-11.06-8.5l-19.48,30.05Zm-12.31-5.86l-1.18,3.63c2.45.79,4.82,1.77,7.08,2.93l1.73-3.4,16.29-31.91c-4.12-2.11-8.43-3.89-12.89-5.34l-11.05,34.08Zm-13.41-2.48l-.2,3.82c2.6.13,5.13.47,7.6,1l.8-3.73,7.47-35.04c-4.49-.96-9.11-1.57-13.83-1.81l-1.85,35.77Z"/>
    </g>
  </g>
</svg>