<?xml version="1.0" encoding="UTF-8"?>
<svg id="Calque_2" data-name="Calque 2" xmlns="http://www.w3.org/2000/svg" xmlns:xlink="http://www.w3.org/1999/xlink" viewBox="0 0 350 93.15">
  <defs>
    <style>
      .cls-1 {
        fill: #eb1b45;
      }

      .cls-2 {
        fill: url(#Dégradé_sans_nom_7);
      }

      .cls-3 {
        fill: url(#Dégradé_sans_nom_27);
        fill-rule: evenodd;
      }

      .cls-4 {
        fill: url(#Dégradé_sans_nom_3);
      }

      .cls-5 {
        fill: url(#linear-gradient);
      }
    </style>
    <linearGradient id="Dégradé_sans_nom_3" data-name="Dégradé sans nom 3" x1="0" y1="56.88" x2="81.08" y2="56.88" gradientUnits="userSpaceOnUse">
      <stop offset="0" stop-color="#09f"/>
      <stop offset=".4" stop-color="#0070b4"/>
      <stop offset="1" stop-color="#2e3191"/>
    </linearGradient>
    <linearGradient id="Dégradé_sans_nom_7" data-name="Dégradé sans nom 7" x1="127.58" y1="93.15" x2="127.58" y2="20.6" gradientUnits="userSpaceOnUse">
      <stop offset="0" stop-color="#a9cf44"/>
      <stop offset=".4" stop-color="#37b34a"/>
      <stop offset=".57" stop-color="#2a9d41"/>
      <stop offset=".91" stop-color="#09672c"/>
      <stop offset="1" stop-color="#005826"/>
    </linearGradient>
    <linearGradient id="Dégradé_sans_nom_27" data-name="Dégradé sans nom 27" x1="84.06" y1="30.71" x2="84.06" y2="0" gradientUnits="userSpaceOnUse">
      <stop offset=".42" stop-color="#ffc50a"/>
      <stop offset="1" stop-color="#f37421"/>
    </linearGradient>
    <linearGradient id="linear-gradient" x1="185.82" y1="27.54" x2="349.87" y2="27.54" gradientUnits="userSpaceOnUse">
      <stop offset="0" stop-color="#eb1b45"/>
      <stop offset="1" stop-color="#c53e95"/>
    </linearGradient>
  </defs>
  <g id="Calque_1-2" data-name="Calque 1">
    <g>
      <g>
        <path class="cls-1" d="m188.82,57.5v3.75h5.04v2.38h-5.04v3.96h5.68v2.44h-8.68v-14.98h8.68v2.44h-5.68Z"/>
        <path class="cls-1" d="m213.53,55.07v14.96h-3v-9.73l-4.01,9.73h-2.27l-4.03-9.73v9.73h-3v-14.96h3.41l4.76,11.12,4.76-11.12h3.39Z"/>
        <path class="cls-1" d="m226.82,61.95c-.38.7-.97,1.26-1.78,1.69-.81.43-1.83.64-3.05.64h-2.51v5.74h-3v-14.96h5.51c1.16,0,2.14.2,2.96.6.81.4,1.42.95,1.83,1.65.41.7.61,1.49.61,2.38,0,.8-.19,1.55-.57,2.25Zm-3.12-.65c.4-.38.6-.91.6-1.6,0-1.46-.81-2.19-2.44-2.19h-2.38v4.35h2.38c.83,0,1.44-.19,1.84-.57Z"/>
        <path class="cls-1" d="m232.6,69.2c-1.17-.66-2.1-1.57-2.78-2.73-.69-1.16-1.03-2.48-1.03-3.95s.34-2.77,1.03-3.93c.69-1.16,1.61-2.07,2.78-2.73,1.17-.66,2.46-.99,3.86-.99s2.7.33,3.87.99c1.16.66,2.08,1.57,2.76,2.73.68,1.16,1.02,2.48,1.02,3.93s-.34,2.79-1.02,3.95c-.68,1.16-1.6,2.08-2.78,2.73-1.17.66-2.46.99-3.86.99s-2.69-.33-3.86-.99Zm6.24-2.3c.69-.41,1.22-.99,1.61-1.75.39-.76.58-1.64.58-2.64s-.19-1.87-.58-2.62c-.38-.75-.92-1.32-1.61-1.72-.69-.4-1.48-.6-2.38-.6s-1.7.2-2.39.6c-.69.4-1.23.97-1.62,1.72s-.58,1.63-.58,2.62.19,1.88.58,2.64c.39.76.92,1.34,1.62,1.75.69.41,1.49.61,2.39.61s1.69-.2,2.38-.61Z"/>
        <path class="cls-1" d="m266.32,55.07l-4.18,14.96h-3.54l-2.81-10.65-2.94,10.65-3.51.02-4.03-14.98h3.21l2.64,11.61,3.04-11.61h3.34l2.87,11.55,2.66-11.55h3.24Z"/>
        <path class="cls-1" d="m271.28,57.5v3.75h5.04v2.38h-5.04v3.96h5.68v2.44h-8.68v-14.98h8.68v2.44h-5.68Z"/>
        <path class="cls-1" d="m287.39,70.03l-3.3-5.83h-1.41v5.83h-3v-14.96h5.61c1.16,0,2.14.2,2.96.61.81.41,1.42.96,1.83,1.65.41.69.61,1.47.61,2.33,0,.99-.29,1.87-.86,2.67s-1.42,1.34-2.55,1.64l3.58,6.06h-3.47Zm-4.71-8.08h2.51c.81,0,1.42-.2,1.82-.59.4-.39.6-.94.6-1.64s-.2-1.22-.6-1.6c-.4-.38-1.01-.57-1.82-.57h-2.51v4.39Z"/>
        <path class="cls-1" d="m309.72,55.07v14.96h-3v-9.73l-4.01,9.73h-2.27l-4.03-9.73v9.73h-3v-14.96h3.41l4.76,11.12,4.76-11.12h3.39Z"/>
        <path class="cls-1" d="m315.67,57.5v3.75h5.04v2.38h-5.04v3.96h5.68v2.44h-8.68v-14.98h8.68v2.44h-5.68Z"/>
        <path class="cls-1" d="m336.87,70.03h-3l-6.79-10.26v10.26h-3v-14.98h3l6.79,10.29v-10.29h3v14.98Z"/>
        <path class="cls-1" d="m350,55.07v2.42h-3.98v12.54h-3v-12.54h-3.99v-2.42h10.97Z"/>
      </g>
      <g>
        <path class="cls-4" d="m78.08,83.39c-.27-1.39-.61-2.76-1-4.05l-.56-3.29c-.11-.66-.31-1.18-.44-1.52-2.27-5.82-7.85-16.61-19.61-23.44-6.95-4.03-14.96-6.1-23.95-6.21-.98-8.33.26-15.87,1.43-20.61.71-2.84,3.79-4.4,6.52-3.33,48.15,18.98,41.98,50.5,37.94,61.73-.08.23-.18.49-.32.71ZM18.27,45.34c5.16,0,9.33-4.18,9.33-9.33s-4.18-9.34-9.33-9.34-9.34,4.18-9.34,9.34,4.18,9.33,9.34,9.33ZM.53,61.16c6.13,11.92,31.55,49.88,67.19,21.97,2.13-1.66,4.28-3.81,4.93-6.43.06-.26-.14-.52-.23-.75-4.31-11.14-20.41-38.93-69.17-21.58-2.76.99-4.06,4.19-2.72,6.79"/>
        <path class="cls-2" d="m89.73,82.67c-4.04-11.24-10.21-42.75,37.94-61.73,2.73-1.07,5.81.49,6.52,3.33,1.17,4.74,2.41,12.28,1.43,20.61-8.99.11-17,2.18-23.95,6.21-11.77,6.82-17.34,17.61-19.61,23.44-.13.34-.34.87-.44,1.52l-.56,3.29c-.39,1.29-.73,2.65-1,4.05-.14-.23-.24-.48-.32-.71Zm69.46-46.66c0-5.16-4.18-9.34-9.34-9.34s-9.33,4.18-9.33,9.34,4.18,9.33,9.33,9.33,9.34-4.18,9.34-9.33Zm8.41,25.15c1.33-2.6.04-5.8-2.72-6.79-48.76-17.35-64.86,10.45-69.17,21.58-.09.23-.29.49-.23.75.65,2.62,2.8,4.76,4.93,6.43,35.65,27.91,61.06-10.05,67.19-21.97"/>
        <path class="cls-3" d="m74.41.95c2.36-.5,4.79-.82,7.27-.95l.97,18.79.1,2.01c-1.36.07-2.7.25-3.99.52l-.42-1.96-3.93-18.41Zm-2.82,20.8l.91,1.79c1.19-.61,2.43-1.12,3.72-1.54l-.62-1.91-5.8-17.91c-2.34.76-4.61,1.7-6.77,2.8l8.56,16.77Zm-5.9,4.06l1.35,1.49c1-.9,2.06-1.72,3.19-2.45l-1.09-1.69-10.24-15.79c-2.06,1.34-4,2.83-5.81,4.46l12.6,13.97Zm-.51,3.35l-1.49-1.35-13.97-12.6c-1.44,1.59-2.76,3.29-3.97,5.08,7,3.07,13.06,6.55,18.15,10.41.41-.53.84-1.05,1.28-1.54Zm53.23-13.94l-13.97,12.6-1.49,1.35c.45.5.88,1.01,1.29,1.54,5.09-3.87,11.15-7.34,18.15-10.41-1.21-1.78-2.53-3.48-3.97-5.08Zm-19.42,7.95l-1.09,1.69c1.13.73,2.2,1.56,3.19,2.45l1.35-1.49,12.6-13.97c-1.81-1.64-3.75-3.13-5.81-4.46l-10.24,15.79Zm-6.47-3.08l-.62,1.91c1.29.41,2.53.93,3.72,1.54l.91-1.79,8.56-16.77c-2.16-1.11-4.43-2.05-6.77-2.8l-5.8,17.91Zm-7.04-1.3l-.1,2.01c1.36.07,2.7.25,3.99.52l.42-1.96,3.93-18.41c-2.36-.5-4.79-.82-7.26-.95l-.97,18.79Z"/>
      </g>
      <g>
        <path class="cls-1" d="m196.86,84.37c-.4.75-1.04,1.35-1.9,1.81-.86.46-1.95.69-3.26.69h-2.68v6.13h-3.2v-15.97h5.88c1.24,0,2.29.21,3.16.64.87.43,1.52,1.01,1.96,1.76.44.75.65,1.59.65,2.54,0,.85-.2,1.65-.61,2.4Zm-3.33-.7c.43-.4.64-.97.64-1.7,0-1.56-.87-2.33-2.61-2.33h-2.54v4.64h2.54c.88,0,1.54-.2,1.97-.61Z"/>
        <path class="cls-1" d="m207.96,92.99l-3.52-6.22h-1.51v6.22h-3.2v-15.97h5.99c1.24,0,2.29.22,3.16.65.87.43,1.52,1.02,1.96,1.76.44.74.65,1.57.65,2.48,0,1.05-.31,2-.92,2.85s-1.52,1.43-2.72,1.75l3.82,6.47h-3.71Zm-5.03-8.62h2.68c.87,0,1.52-.21,1.94-.63.43-.42.64-1,.64-1.75s-.21-1.3-.64-1.7c-.43-.4-1.08-.61-1.94-.61h-2.68v4.69Z"/>
        <path class="cls-1" d="m217.68,92.1c-1.25-.7-2.24-1.67-2.97-2.92-.73-1.24-1.1-2.65-1.1-4.22s.37-2.95,1.1-4.2c.73-1.24,1.72-2.21,2.97-2.92,1.25-.7,2.62-1.05,4.12-1.05s2.89.35,4.13,1.05c1.24.7,2.23,1.67,2.95,2.92.72,1.24,1.09,2.64,1.09,4.2s-.36,2.98-1.09,4.22c-.73,1.24-1.71,2.22-2.96,2.92-1.25.7-2.62,1.05-4.12,1.05s-2.87-.35-4.12-1.05Zm6.66-2.46c.73-.43,1.3-1.06,1.71-1.86.41-.81.62-1.75.62-2.81s-.21-2-.62-2.8c-.41-.8-.98-1.41-1.71-1.84-.73-.43-1.58-.64-2.54-.64s-1.81.21-2.55.64c-.74.43-1.31,1.04-1.73,1.84s-.62,1.73-.62,2.8.21,2.01.62,2.81c.41.81.99,1.43,1.73,1.86.74.43,1.59.65,2.55.65s1.81-.22,2.54-.65Z"/>
        <path class="cls-1" d="m243.46,81.83c-.37-.67-.87-1.18-1.51-1.53-.64-.35-1.39-.53-2.24-.53-.95,0-1.78.21-2.52.64s-1.3,1.04-1.72,1.83c-.41.79-.62,1.71-.62,2.74s.21,2,.63,2.79c.42.79,1,1.4,1.75,1.83.75.43,1.62.64,2.61.64,1.22,0,2.22-.32,3-.97.78-.65,1.29-1.55,1.53-2.71h-5.49v-2.45h8.65v2.79c-.21,1.11-.67,2.14-1.37,3.09-.7.95-1.6,1.7-2.71,2.28-1.1.57-2.34.86-3.72.86-1.54,0-2.93-.35-4.18-1.04-1.24-.69-2.22-1.66-2.93-2.89-.71-1.23-1.06-2.64-1.06-4.21s.35-2.98,1.06-4.22c.71-1.24,1.68-2.21,2.93-2.9,1.24-.69,2.63-1.04,4.15-1.04,1.8,0,3.36.44,4.69,1.31,1.33.88,2.24,2.11,2.74,3.69h-3.68Z"/>
        <path class="cls-1" d="m258.15,92.99l-3.52-6.22h-1.51v6.22h-3.2v-15.97h5.99c1.24,0,2.29.22,3.16.65.87.43,1.52,1.02,1.96,1.76.44.74.65,1.57.65,2.48,0,1.05-.31,2-.92,2.85s-1.52,1.43-2.72,1.75l3.82,6.47h-3.71Zm-5.03-8.62h2.68c.87,0,1.52-.21,1.94-.63.43-.42.64-1,.64-1.75s-.21-1.3-.64-1.7c-.43-.4-1.08-.61-1.94-.61h-2.68v4.69Z"/>
        <path class="cls-1" d="m274.36,89.95h-6.36l-1.05,3.04h-3.36l5.74-15.99h3.73l5.74,15.99h-3.38l-1.05-3.04Zm-.87-2.56l-2.31-6.68-2.31,6.68h4.62Z"/>
        <path class="cls-1" d="m298.36,77.03v15.97h-3.2v-10.38l-4.28,10.38h-2.42l-4.3-10.38v10.38h-3.2v-15.97h3.64l5.08,11.87,5.08-11.87h3.61Z"/>
      </g>
      <path class="cls-5" d="m185.82,18.72v-9.43h5.58v9.43c0,5.48,7.16,8.64,15.01,9.27V9.29h5.58v17.85c0,10.74-4.69,19.01-16.38,19.01-2.27,0-5.11-.42-7.58-1.11l1.53-5.27c2,.58,4.32.9,6.06.9,5.27,0,8.64-2.26,10.06-7.27-8.27-.74-19.85-4.63-19.85-14.69Zm30.76,8.79c0-10.37,8.32-18.59,18.64-18.59s18.64,8.22,18.64,18.59-8.32,18.64-18.64,18.64-18.64-8.32-18.64-18.64Zm18.64,13.27c7.22,0,13.06-5.95,13.06-13.27s-5.85-13.27-13.06-13.27-13.06,5.95-13.06,13.27,5.85,13.27,13.06,13.27Zm27.6-31.28v19.12c0,7,4.79,12.11,11.43,12.11s11.37-5.11,11.37-12.11V9.29h5.58v19.33c0,9.79-7,17.54-16.96,17.54s-17.01-7.69-17.01-17.54V9.5h5.58Zm31.18-.16v-.05h32.91v21.8c4.27-4.63,10.95-8.32,17.33-8.37v-13.43h5.63v36.86h-5.63v-17.85c-7.37.11-17.33,7.74-17.33,15.54v2.32h-5.63V14.92h-9.43v31.18h-.05v.05h-5.64V14.92h-12.22v-5.58h.05Z"/>
    </g>
  </g>
</svg>