<?xml version="1.0" encoding="UTF-8"?>
<svg id="Calque_2" data-name="Calque 2" xmlns="http://www.w3.org/2000/svg" xmlns:xlink="http://www.w3.org/1999/xlink" viewBox="0 0 320 258.85">
  <defs>
    <style>
      .cls-1 {
        fill: #fff;
      }

      .cls-2 {
        fill: url(#Dégradé_sans_nom_12);
      }

      .cls-3 {
        fill: url(#Dégradé_sans_nom_27);
        fill-rule: evenodd;
      }

      .cls-4 {
        fill: url(#linear-gradient);
      }

      .cls-5 {
        fill: url(#Dégradé_sans_nom_19);
      }
    </style>
    <linearGradient id="linear-gradient" x1="74.68" y1="210.56" x2="245.32" y2="210.56" gradientUnits="userSpaceOnUse">
      <stop offset="0" stop-color="#eb1b45"/>
      <stop offset="1" stop-color="#c53e95"/>
    </linearGradient>
    <linearGradient id="Dégradé_sans_nom_12" data-name="Dégradé sans nom 12" x1="0" y1="108.26" x2="154.34" y2="108.26" gradientUnits="userSpaceOnUse">
      <stop offset="0" stop-color="#09f"/>
      <stop offset="1" stop-color="#0070b4"/>
    </linearGradient>
    <linearGradient id="Dégradé_sans_nom_19" data-name="Dégradé sans nom 19" x1="242.83" y1="177.3" x2="242.83" y2="39.21" gradientUnits="userSpaceOnUse">
      <stop offset=".11" stop-color="#6c3"/>
      <stop offset=".87" stop-color="#0ca32b"/>
    </linearGradient>
    <linearGradient id="Dégradé_sans_nom_27" data-name="Dégradé sans nom 27" x1="160" y1="58.45" x2="160" y2="0" gradientUnits="userSpaceOnUse">
      <stop offset=".42" stop-color="#ffc50a"/>
      <stop offset="1" stop-color="#f37421"/>
    </linearGradient>
  </defs>
  <g id="Calque_1-2" data-name="Calque 1">
    <g>
      <g>
        <rect class="cls-4" x="74.68" y="185.94" width="170.64" height="49.24" rx="13.56" ry="13.56"/>
        <g>
          <path class="cls-1" d="m84.74,202.79v-8.3h4.91v8.3c0,4.82,6.31,7.6,13.21,8.16v-16.46h4.91v15.72c0,9.46-4.13,16.74-14.42,16.74-1.99,0-4.5-.37-6.68-.97l1.34-4.64c1.76.51,3.8.79,5.33.79,4.64,0,7.6-1.99,8.86-6.4-7.28-.65-17.48-4.08-17.48-12.94Z"/>
          <path class="cls-1" d="m112.69,210.54c0-9.13,7.33-16.37,16.41-16.37s16.41,7.23,16.41,16.37-7.33,16.41-16.41,16.41-16.41-7.33-16.41-16.41Zm16.41,11.68c6.35,0,11.5-5.24,11.5-11.68s-5.15-11.68-11.5-11.68-11.5,5.24-11.5,11.68,5.15,11.68,11.5,11.68Z"/>
          <path class="cls-1" d="m155.34,194.68v16.83c0,6.17,4.22,10.66,10.06,10.66s10.02-4.5,10.02-10.66v-17.02h4.91v17.02c0,8.62-6.17,15.44-14.93,15.44s-14.98-6.77-14.98-15.44v-16.83h4.91Z"/>
          <path class="cls-1" d="m185.28,194.54v-.05h28.98v19.2c3.76-4.08,9.64-7.33,15.26-7.37v-11.82h4.96v32.46h-4.96v-15.72c-6.49.09-15.26,6.82-15.26,13.68v2.04h-4.96v-27.5h-8.3v27.45h-.05v.05h-4.96v-27.5h-10.76v-4.91h.05Z"/>
        </g>
        <g>
          <path class="cls-1" d="m51.38,248.68v3.01h4.04v1.91h-4.04v3.18h4.55v1.96h-6.96v-12.01h6.96v1.96h-4.55Z"/>
          <path class="cls-1" d="m71.19,246.74v11.99h-2.41v-7.8l-3.21,7.8h-1.82l-3.23-7.8v7.8h-2.41v-11.99h2.73l3.81,8.92,3.82-8.92h2.71Z"/>
          <path class="cls-1" d="m81.86,252.25c-.3.56-.78,1.01-1.43,1.36-.65.34-1.46.52-2.45.52h-2.01v4.61h-2.41v-11.99h4.42c.93,0,1.72.16,2.37.48.65.32,1.14.76,1.47,1.32.33.56.49,1.2.49,1.91,0,.64-.15,1.24-.46,1.8Zm-2.5-.52c.32-.3.48-.73.48-1.28,0-1.17-.65-1.75-1.96-1.75h-1.91v3.49h1.91c.66,0,1.16-.15,1.48-.46Z"/>
          <path class="cls-1" d="m86.49,258.06c-.94-.53-1.68-1.26-2.23-2.19-.55-.93-.83-1.99-.83-3.17s.27-2.22.83-3.15c.55-.93,1.29-1.66,2.23-2.19.94-.53,1.97-.79,3.09-.79s2.17.26,3.1.79c.93.53,1.67,1.26,2.22,2.19.54.93.82,1.98.82,3.15s-.27,2.24-.82,3.17c-.54.93-1.29,1.66-2.23,2.19-.94.53-1.97.79-3.09.79s-2.15-.26-3.09-.79Zm5-1.85c.55-.33.98-.79,1.29-1.4.31-.61.46-1.31.46-2.11s-.15-1.5-.46-2.1c-.31-.6-.74-1.06-1.29-1.38-.55-.32-1.19-.48-1.91-.48s-1.36.16-1.92.48c-.56.32-.99.78-1.3,1.38s-.46,1.3-.46,2.1.15,1.51.46,2.11c.31.61.74,1.07,1.3,1.4.56.33,1.19.49,1.92.49s1.36-.16,1.91-.49Z"/>
          <path class="cls-1" d="m113.54,246.74l-3.35,11.99h-2.83l-2.25-8.54-2.35,8.54-2.82.02-3.23-12.01h2.58l2.11,9.31,2.44-9.31h2.68l2.3,9.26,2.13-9.26h2.59Z"/>
          <path class="cls-1" d="m117.5,248.68v3.01h4.04v1.91h-4.04v3.18h4.55v1.96h-6.96v-12.01h6.96v1.96h-4.55Z"/>
          <path class="cls-1" d="m130.43,258.73l-2.65-4.67h-1.13v4.67h-2.41v-11.99h4.5c.93,0,1.72.16,2.37.49.65.33,1.14.77,1.47,1.32.33.56.49,1.18.49,1.86,0,.79-.23,1.5-.69,2.14s-1.14,1.07-2.04,1.31l2.87,4.86h-2.78Zm-3.78-6.48h2.01c.65,0,1.14-.16,1.46-.47.32-.31.48-.75.48-1.31s-.16-.98-.48-1.28c-.32-.3-.81-.46-1.46-.46h-2.01v3.52Z"/>
          <path class="cls-1" d="m148.33,246.74v11.99h-2.41v-7.8l-3.21,7.8h-1.82l-3.23-7.8v7.8h-2.41v-11.99h2.73l3.81,8.92,3.82-8.92h2.71Z"/>
          <path class="cls-1" d="m153.11,248.68v3.01h4.04v1.91h-4.04v3.18h4.55v1.96h-6.96v-12.01h6.96v1.96h-4.55Z"/>
          <path class="cls-1" d="m170.11,258.73h-2.41l-5.45-8.23v8.23h-2.41v-12.01h2.41l5.45,8.25v-8.25h2.41v12.01Z"/>
          <path class="cls-1" d="m180.64,246.74v1.94h-3.2v10.05h-2.41v-10.05h-3.2v-1.94h8.8Z"/>
          <path class="cls-1" d="m194.77,252.25c-.3.56-.78,1.01-1.43,1.36-.65.34-1.46.52-2.45.52h-2.01v4.61h-2.41v-11.99h4.42c.93,0,1.72.16,2.37.48.65.32,1.14.76,1.47,1.32.33.56.49,1.2.49,1.91,0,.64-.15,1.24-.46,1.8Zm-2.5-.52c.32-.3.48-.73.48-1.28,0-1.17-.65-1.75-1.96-1.75h-1.91v3.49h1.91c.66,0,1.16-.15,1.48-.46Z"/>
          <path class="cls-1" d="m203.12,258.73l-2.65-4.67h-1.13v4.67h-2.41v-11.99h4.5c.93,0,1.72.16,2.37.49.65.33,1.14.77,1.47,1.32.33.56.49,1.18.49,1.86,0,.79-.23,1.5-.69,2.14s-1.14,1.07-2.04,1.31l2.87,4.86h-2.78Zm-3.78-6.48h2.01c.65,0,1.14-.16,1.46-.47.32-.31.48-.75.48-1.31s-.16-.98-.48-1.28c-.32-.3-.81-.46-1.46-.46h-2.01v3.52Z"/>
          <path class="cls-1" d="m210.42,258.06c-.94-.53-1.68-1.26-2.23-2.19-.55-.93-.83-1.99-.83-3.17s.27-2.22.83-3.15c.55-.93,1.29-1.66,2.23-2.19.94-.53,1.97-.79,3.09-.79s2.17.26,3.1.79c.93.53,1.67,1.26,2.22,2.19.54.93.82,1.98.82,3.15s-.27,2.24-.82,3.17c-.54.93-1.29,1.66-2.23,2.19-.94.53-1.97.79-3.09.79s-2.15-.26-3.09-.79Zm5-1.85c.55-.33.98-.79,1.29-1.4.31-.61.46-1.31.46-2.11s-.15-1.5-.46-2.1c-.31-.6-.74-1.06-1.29-1.38-.55-.32-1.19-.48-1.91-.48s-1.36.16-1.92.48c-.56.32-.99.78-1.3,1.38s-.46,1.3-.46,2.1.15,1.51.46,2.11c.31.61.74,1.07,1.3,1.4.56.33,1.19.49,1.92.49s1.36-.16,1.91-.49Z"/>
          <path class="cls-1" d="m229.79,250.34c-.27-.5-.65-.89-1.13-1.15-.48-.26-1.04-.4-1.68-.4-.71,0-1.34.16-1.89.48s-.98.78-1.29,1.37c-.31.6-.46,1.28-.46,2.06s.16,1.5.47,2.1c.31.6.75,1.05,1.31,1.37.56.32,1.21.48,1.96.48.92,0,1.67-.24,2.25-.73.58-.49.97-1.17,1.15-2.04h-4.12v-1.84h6.5v2.1c-.16.84-.5,1.61-1.03,2.32-.53.71-1.21,1.28-2.04,1.71-.83.43-1.76.64-2.79.64-1.16,0-2.2-.26-3.14-.78-.93-.52-1.67-1.25-2.2-2.17-.53-.93-.8-1.98-.8-3.16s.27-2.24.8-3.17c.53-.93,1.27-1.66,2.2-2.18.93-.52,1.97-.78,3.12-.78,1.35,0,2.53.33,3.52.99,1,.66,1.68,1.58,2.06,2.78h-2.77Z"/>
          <path class="cls-1" d="m240.82,258.73l-2.65-4.67h-1.13v4.67h-2.41v-11.99h4.5c.93,0,1.72.16,2.37.49.65.33,1.14.77,1.47,1.32.33.56.49,1.18.49,1.86,0,.79-.23,1.5-.69,2.14s-1.14,1.07-2.04,1.31l2.87,4.86h-2.78Zm-3.78-6.48h2.01c.65,0,1.14-.16,1.46-.47.32-.31.48-.75.48-1.31s-.16-.98-.48-1.28c-.32-.3-.81-.46-1.46-.46h-2.01v3.52Z"/>
          <path class="cls-1" d="m253,256.44h-4.78l-.79,2.29h-2.53l4.31-12.01h2.8l4.31,12.01h-2.54l-.79-2.29Zm-.65-1.92l-1.74-5.02-1.74,5.02h3.47Z"/>
          <path class="cls-1" d="m271.03,246.74v11.99h-2.41v-7.8l-3.21,7.8h-1.82l-3.23-7.8v7.8h-2.41v-11.99h2.73l3.81,8.92,3.82-8.92h2.71Z"/>
        </g>
      </g>
      <g>
        <path class="cls-2" d="m148.61,158.72c-.52-2.65-1.17-5.25-1.91-7.7l-1.06-6.27c-.2-1.25-.59-2.25-.84-2.9-4.32-11.08-14.94-31.62-37.33-44.61-13.24-7.67-28.48-11.6-45.59-11.81-1.87-15.85.5-30.21,2.73-39.23,1.34-5.4,7.21-8.37,12.4-6.33,91.65,36.12,79.9,96.11,72.21,117.5-.16.44-.34.93-.61,1.36ZM34.78,86.3c9.81,0,17.77-7.95,17.77-17.77s-7.95-17.77-17.77-17.77-17.77,7.96-17.77,17.77,7.96,17.77,17.77,17.77ZM1,116.41c11.67,22.69,60.05,94.93,127.9,41.82,4.05-3.17,8.14-7.25,9.38-12.23.12-.49-.27-.99-.44-1.43-8.19-21.2-38.85-74.1-131.66-41.08-5.25,1.88-7.72,7.98-5.19,12.93"/>
        <path class="cls-5" d="m170.78,157.36c-7.68-21.39-19.43-81.38,72.21-117.5,5.2-2.03,11.06.94,12.4,6.33,2.23,9.02,4.59,23.38,2.73,39.23-17.12.21-32.36,4.14-45.59,11.81-22.39,12.98-33.01,33.52-37.33,44.61-.26.65-.64,1.65-.84,2.9l-1.06,6.27c-.74,2.46-1.39,5.05-1.91,7.7-.27-.43-.45-.92-.61-1.36Zm132.2-88.82c0-9.81-7.96-17.77-17.77-17.77s-17.77,7.96-17.77,17.77,7.95,17.77,17.77,17.77,17.77-7.95,17.77-17.77Zm16.01,47.87c2.54-4.95.07-11.04-5.19-12.93-92.81-33.02-123.46,19.89-131.66,41.08-.17.44-.56.93-.44,1.43,1.24,4.99,5.33,9.07,9.38,12.23,67.85,53.12,116.23-19.13,127.9-41.82"/>
        <path class="cls-3" d="m141.63,1.81c4.49-.96,9.11-1.57,13.83-1.81l1.85,35.77.2,3.82c-2.59.13-5.13.47-7.6,1l-.79-3.73-7.48-35.04Zm-5.37,39.6l1.74,3.4c2.26-1.16,4.63-2.14,7.08-2.93l-1.17-3.63-11.05-34.08c-4.46,1.45-8.77,3.23-12.88,5.34l16.29,31.91Zm-11.23,7.73l2.56,2.84c1.9-1.71,3.93-3.27,6.08-4.67l-2.08-3.21-19.48-30.05c-3.91,2.54-7.61,5.39-11.06,8.5l23.98,26.59Zm-.97,6.37l-2.84-2.56-26.59-23.98c-2.74,3.03-5.25,6.27-7.55,9.66,13.33,5.85,24.85,12.46,34.54,19.82.78-1.01,1.59-1.99,2.45-2.94Zm101.32-26.54l-26.59,23.98-2.84,2.56c.85.95,1.67,1.93,2.45,2.94,9.69-7.36,21.21-13.97,34.54-19.82-2.3-3.39-4.81-6.63-7.55-9.66Zm-36.96,15.13l-2.08,3.21c2.15,1.4,4.18,2.96,6.08,4.67l2.56-2.84,23.98-26.59c-3.45-3.11-7.15-5.96-11.06-8.5l-19.48,30.05Zm-12.31-5.86l-1.18,3.63c2.45.79,4.82,1.77,7.08,2.93l1.73-3.4,16.29-31.91c-4.12-2.11-8.43-3.89-12.89-5.34l-11.05,34.08Zm-13.41-2.48l-.2,3.82c2.6.13,5.13.47,7.6,1l.8-3.73,7.47-35.04c-4.49-.96-9.11-1.57-13.83-1.81l-1.85,35.77Z"/>
      </g>
    </g>
  </g>
</svg>